# xmcd
#
# Track frame offsets:
# 150
# 15765
# 26096
# 42291
# 52667
# 63363
# 75724
# 85756
# 101156
# 112810
# 127330
# 138085
# 150170
# 164336
# 176393
# 188909
# 209975
# 221678
# 235320
# 252266
# 266624
# 280016
# 290134
# 301686
#
# Disc length: 4189 seconds
#
# Revision: 0
# Processed by: cddbd v1.5.2PL0 Copyright (c) Steve Scherf et al.
# Submitted via: CoinsHifi v1.9e contact@coinshifi.com
#
DISCID=48105b18
DTITLE=Georges Jouvin and Georges Jouvin - Georges Jouvin
DYEAR=2007
DGENRE=Acoustique
TTITLE0=Ave Maria Bonsoir Clara
TTITLE1=Concerto pour un été
TTITLE2=Country rock
TTITLE3=Donna Donna
TTITLE4=Et Mourir de plaisir
TTITLE5=Exodus
TTITLE6=Gelsomina
TTITLE7=La colégiala
TTITLE8=La paloma
TTITLE9=Le métèqueUVIN_Le métèque
TTITLE10=Georges JOUVIN_Les Champs-Eli
TTITLE11=Les Feuilles Mortes
TTITLE12=Le pénitencier
TTITLE13=Let's Twist Again
TTITLE14=Ne Me Quitte Pas
TTITLE15=Oh! mon papa
TTITLE16=Petite fleur
TTITLE17=Georges Jouvin - Rêve D'amour
TTITLE18=Rhapsodie du soleil
TTITLE19=Rio Bravo
TTITLE20=Roses de Picardie
TTITLE21=Summertime
TTITLE22=Trompette d'Or
TTITLE23=Trompette
EXTD=
EXTT0=Instrumental
EXTT1=Instrumental
EXTT2=Instrumental
EXTT3=Instrumental
EXTT4=Instrumental
EXTT5=Instrumental
EXTT6=Instrumental
EXTT7=Instrumental
EXTT8=Instrumental
EXTT9=Instrumental
EXTT10=Instrumental
EXTT11=Instrumental
EXTT12=Instrumental
EXTT13=Instrumental
EXTT14=Instrumental
EXTT15=Instrumental
EXTT16=Instrumental
EXTT17=Instrumental
EXTT18=Instrumental
EXTT19=Instrumental
EXTT20=Instrumental
EXTT21=Instrumental
EXTT22=Instrumental
EXTT23=Instrumental
PLAYORDER=
